<svg xmlns="http://www.w3.org/2000/svg" version="1.1" xmlns:xlink="http://www.w3.org/1999/xlink" xmlns:svgjs="http://svgjs.dev/svgjs" width="100%" height="100%" viewBox="0 0 1000 600"><rect width="1000" height="600" x="0" y="0" fill="#8c3908"/><g><rect width="333.3333333333333" height="333.3333333333333" rx="13.333333333333334" ry="13.333333333333334" y="304.9564026826894" fill="#262626" transform="matrix(0.4421114303578433,0,0,0.4421114303578433,0,91.49006772768399)" x="282.7341613769532"/><path d="M394.3473212034242 396.6230454693352L394.3473212034242 396.6230454693352Q403.59829300487326 396.6230454693352 410.2228059352484 397.03160573816893Q416.8473188656236 397.44016600700263 422.4212482475692 398.4032009263964Q427.9659947531696 399.33705296944487 433.8609357749131 400.82537966305335L433.8609357749131 400.82537966305335L431.96404881247093 414.89152606147115Q425.66054752189365 414.2495027818753 420.3200811507101 413.8409425130416Q414.95043190318137 413.4323822442079 408.85121074702096 413.1989192334458Q402.75198959086055 412.9946390990289 394.3473212034242 412.9946390990289L394.3473212034242 412.9946390990289Q380.2811748050064 412.9946390990289 372.08078655198693 418.4518369755935Q363.88039829896746 423.93821772850333 360.43681889022616 436.7495004440747Q356.9640566051396 449.56078315964606 356.9640566051396 471.6230376766665L356.9640566051396 471.6230376766665Q356.9640566051396 493.6852921936869 360.43681889022616 506.4965749092583Q363.88039829896746 519.3078576248297 372.08078655198693 524.7942383777395Q380.2811748050064 530.251436254304 394.3473212034242 530.251436254304L394.3473212034242 530.251436254304Q407.8006271985914 530.251436254304 416.9348674946594 529.7261444800893Q426.0982906670726 529.2008527058745 434.9115193233427 527.9459890230282L434.9115193233427 527.9459890230282L436.80840628578494 541.807855287029Q427.76171461875276 544.3175826527219 418.21891405385105 545.4848977065324Q408.6469306126041 546.6230298839978 394.3473212034242 546.6230298839978L394.3473212034242 546.6230298839978Q373.5691132455955 546.6230298839978 361.04965929347674 539.385676550372Q348.55938821770326 532.1483232167463 342.98545883575764 515.7475467107074Q337.41152945381197 499.3467702046683 337.41152945381197 471.6230376766665L337.41152945381197 471.6230376766665Q337.41152945381197 443.89930514866467 342.98545883575764 427.4985286426257Q348.55938821770326 411.0977521365867 361.04965929347674 403.8603988029609Q373.5691132455955 396.6230454693352 394.3473212034242 396.6230454693352ZM496.04964526667305 399.132772835028L514.5515888695711 399.132772835028L514.5515888695711 544.1133025183051L496.04964526667305 544.1133025183051L496.04964526667305 399.132772835028ZM449.41540886693946 399.132772835028L561.3901054037217 399.132772835028L561.3901054037217 415.533549341067L449.41540886693946 415.533549341067L449.41540886693946 399.132772835028Z " fill="#f2f2f2" transform="matrix(0.4421114303578433,0,0,0.4421114303578433,0,91.49006772768399)"/><path d="M744.1690529076881 396.6230601571488L744.1690529076881 396.6230601571488Q751.443030642511 396.6230601571488 756.6518411971003 396.94430838518514Q761.8606517516896 397.2655566132215 766.2433954341856 398.0227845793072Q770.6031928146788 398.7570662433903 775.2383458192031 399.92732764552267L775.2383458192031 399.92732764552267L773.7468361890344 410.987445210774Q768.7904349564736 410.4826265667169 764.5912616899985 410.16137833868055Q760.3691421215209 409.8401301106442 755.5733650029782 409.6565596946234Q750.7775878844358 409.49593558060525 744.1690529076881 409.49593558060525L744.1690529076881 409.49593558060525Q733.1089353424367 409.49593558060525 726.6610244797072 413.7868940550907Q720.2131136169777 418.1007988315788 717.5054499806714 428.17422541071846Q714.7748400423624 438.2476519898582 714.7748400423624 455.59505630382085L714.7748400423624 455.59505630382085Q714.7748400423624 472.9424606177835 717.5054499806714 483.0158871969232Q720.2131136169777 493.0893137760629 726.6610244797072 497.403218552551Q733.1089353424367 501.69417702703646 744.1690529076881 501.69417702703646L744.1690529076881 501.69417702703646Q754.7472981308848 501.69417702703646 761.9294906576974 501.28114359098976Q769.1346294865126 500.868110154943 776.0644126912966 499.88141916883137L776.0644126912966 499.88141916883137L777.5559223214653 510.7809126200645Q770.4425687006606 512.7542945922878 762.9391279458117 513.6721466723916Q755.4127408889601 514.5670524504928 744.1690529076881 514.5670524504928L744.1690529076881 514.5670524504928Q727.8312858818396 514.5670524504928 717.9873223227258 508.87636955384903Q708.1663050656147 503.18568665720517 703.7835613831188 490.2898649317462Q699.400817700623 477.39404320628717 699.400817700623 455.59505630382085L699.400817700623 455.59505630382085Q699.400817700623 433.79606940135454 703.7835613831188 420.9002476758955Q708.1663050656147 408.00442595043654 717.9873223227258 402.3137430537927Q727.8312858818396 396.6230601571488 744.1690529076881 396.6230601571488ZM834.3939123818959 430.14760738294177L834.3939123818959 430.14760738294177Q843.2970775589032 430.14760738294177 849.4925790996042 432.5569690932143Q855.6880806403052 434.94338450148433 858.8317240146608 440.5652284921204Q861.9753673890165 446.18707248275643 861.9753673890165 455.9163045318572L861.9753673890165 455.9163045318572L861.9753673890165 512.5936704782696L850.9152498237652 512.5936704782696L848.7582974355212 495.08564205028875L847.7716064494094 493.27288419208367L847.7716064494094 455.9163045318572Q847.7716064494094 448.48170268301607 844.3755537530252 445.2692204026526Q841.0024473586436 442.0567381222891 831.4108931215585 442.0567381222891L831.4108931215585 442.0567381222891Q825.1236063728471 442.0567381222891 815.6238373437724 442.6992345783618Q806.1240683146975 443.3646773364371 796.8767086076513 444.1907442085306L796.8767086076513 444.1907442085306L795.5687693935033 433.79606940135454Q801.1676670821367 432.7864321132403 807.8679872668948 431.96036524114686Q814.5683074516529 431.1342983690534 821.498090656437 430.65242602699885Q828.427873861221 430.14760738294177 834.3939123818959 430.14760738294177ZM814.2241129216139 463.02965815266197L855.3668324122688 463.02965815266197L855.2062082982507 473.6079033758588L816.7023135378944 473.768527489877Q810.9198454332401 473.92915160389515 808.6022689309779 476.82038565622224Q806.3076387307183 479.71161970854934 806.3076387307183 484.82864505512833L806.3076387307183 484.82864505512833L806.3076387307183 489.96861670370987Q806.3076387307183 496.2329571504186 809.2677116890533 499.1241912027457Q812.2507309493907 502.0154252550728 818.8592659261384 502.0154252550728L818.8592659261384 502.0154252550728Q823.4714726286602 502.0154252550728 829.3457259413248 500.2944526048781Q835.2199792539894 498.55053365268077 841.1630714726618 494.9250179362706Q847.1061636913342 491.2765559178578 852.0625649238949 485.65471192722174L852.0625649238949 485.65471192722174L852.0625649238949 496.0723330364004Q850.2498070656899 498.3899095386626 846.8537543693056 501.44176770500786Q843.480647974924 504.4936258713532 838.7537097623892 507.38485992368027Q834.049717851857 510.2760939760074 828.3590349552131 512.1806370422229Q822.6454057565667 514.0851801084384 816.0368707798191 514.0851801084384L816.0368707798191 514.0851801084384Q808.9464634610168 514.0851801084384 803.485243584399 511.5151942841476Q798.0469700097836 508.9681547618594 794.9721655414359 503.9199683212883Q791.9203073750906 498.8717818807171 791.9203073750906 491.62075044789674L791.9203073750906 491.62075044789674L791.9203073750906 482.855263082905Q791.9203073750906 473.4472792618406 797.7945606877552 468.23846870725134Q803.6458676984172 463.02965815266197 814.2241129216139 463.02965815266197L814.2241129216139 463.02965815266197ZM887.2621921958774 396.94430838518514L901.1217586054455 396.94430838518514L901.1217586054455 490.45048904576436Q901.1217586054455 495.75108480836406 904.0129926577725 498.45874844467045Q906.9042267100997 501.1893583829793 912.2048224726994 501.1893583829793L912.2048224726994 501.1893583829793L919.9606725495769 501.1893583829793L921.6128062937638 511.92822772019434Q920.121296663595 512.5936704782696 917.4136330272887 513.0984891223268Q914.6830230889798 513.5803614643812 911.7917890366526 513.8327707864098Q908.9005549843256 514.0851801084384 906.9042267100997 514.0851801084384L906.9042267100997 514.0851801084384Q898.0010615330924 514.0851801084384 892.6316268644849 508.78458434583865Q887.2621921958774 503.50693488524155 887.2621921958774 493.59413242012005L887.2621921958774 493.59413242012005L887.2621921958774 396.94430838518514ZM970.5113758612962 430.14760738294177L970.5113758612962 430.14760738294177Q974.1598378797089 430.14760738294177 978.6114204682125 430.4918019129807Q983.0859493587188 430.8130501410171 987.789941269251 431.6391170131105Q992.4939331797832 432.46518388520394 996.4636434262324 433.9566935153727L996.4636434262324 433.9566935153727L994.6508855680273 443.04342910840074Q989.1896656914095 442.53861046434366 983.1547882647266 442.2862011423151Q977.1199108380439 442.0567381222891 972.8289523635583 442.0567381222891L972.8289523635583 442.0567381222891Q963.2603444284757 442.0567381222891 957.6385004378398 444.69556285258767Q952.0166564472037 447.3343875828862 949.5384558309233 453.9429225596339Q947.0602552146429 460.55145753638163 947.0602552146429 472.2770178597082L947.0602552146429 472.2770178597082Q947.0602552146429 484.0025781830348 949.5384558309233 490.7028983677929Q952.0166564472037 497.403218552551 957.6385004378398 500.04204328284953Q963.2603444284757 502.6808680131481 972.8289523635583 502.6808680131481L972.8289523635583 502.6808680131481Q975.3071529798386 502.6808680131481 979.2768632262879 502.5202438991299Q983.2465734727369 502.35961978511176 987.789941269251 502.0154252550728Q992.3333090657651 501.69417702703646 996.4636434262324 501.02873426896116L996.4636434262324 501.02873426896116L997.9551530564011 510.4367180900256Q991.8284904217079 512.5936704782696 984.6462978948954 513.5803614643812Q977.4641053680826 514.5670524504928 970.350751747278 514.5670524504928L970.350751747278 514.5670524504928Q956.4682390357074 514.5670524504928 948.0469462007545 510.4367180900256Q939.6256533658018 506.30638372955826 935.9083524413812 497.05902402251206Q932.1910515169606 487.8116643154658 932.1910515169606 472.2770178597082L932.1910515169606 472.2770178597082Q932.1910515169606 456.74237140395064 936.0001376493916 447.49501169690444Q939.7862774798199 438.2476519898582 948.2075703147726 434.2091028374013Q956.651809451728 430.14760738294177 970.5113758612962 430.14760738294177ZM1016.4498724704936 432.1439356571676L1030.4930092960822 432.1439356571676L1030.4930092960822 488.63773118755927Q1030.3323851820642 496.2329571504186 1033.292458140399 499.37660052477423Q1036.2754774007367 502.5202438991299 1043.2052606055204 502.5202438991299L1043.2052606055204 502.5202438991299Q1049.9973659982888 502.5202438991299 1056.6747398810444 499.28481531676385Q1063.3750600658027 496.0723330364004 1072.7830438868668 489.96861670370987L1072.7830438868668 489.96861670370987L1074.595801745072 499.69784875281056Q1065.1878179240075 507.1324506016517 1056.353491653008 510.9415367340827Q1047.5191653820089 514.7506228665136 1038.4324297889807 514.7506228665136L1038.4324297889807 514.7506228665136Q1016.4498724704936 514.7506228665136 1016.4498724704936 492.6074414340084L1016.4498724704936 492.6074414340084L1016.4498724704936 432.1439356571676ZM1071.2915342566985 432.1439356571676L1085.334671082287 432.1439356571676L1085.334671082287 512.5936704782696L1074.1139294030177 512.5936704782696L1072.7830438868668 497.403218552551L1071.2915342566985 494.9250179362706L1071.2915342566985 432.1439356571676ZM1111.286938647223 396.94430838518514L1125.169451358794 396.94430838518514L1125.169451358794 490.45048904576436Q1125.169451358794 495.75108480836406 1128.060685411121 498.45874844467045Q1130.9519194634481 501.1893583829793 1136.2295689240455 501.1893583829793L1136.2295689240455 501.1893583829793L1143.9854190009228 501.1893583829793L1145.6375527451096 511.92822772019434Q1144.1689894169435 512.5936704782696 1141.4383794786345 513.0984891223268Q1138.7077695403254 513.5803614643812 1135.8165354879984 513.8327707864098Q1132.9253014356714 514.0851801084384 1130.9519194634481 514.0851801084384L1130.9519194634481 514.0851801084384Q1122.0258079844384 514.0851801084384 1116.656373315831 508.78458434583865Q1111.286938647223 503.50693488524155 1111.286938647223 493.59413242012005L1111.286938647223 493.59413242012005L1111.286938647223 396.94430838518514ZM1198.1845843310548 430.14760738294177L1198.1845843310548 430.14760738294177Q1207.1106958100645 430.14760738294177 1213.3061973507656 432.5569690932143Q1219.5016988914667 434.94338450148433 1222.6453422658224 440.5652284921204Q1225.7660393381752 446.18707248275643 1225.7660393381752 455.9163045318572L1225.7660393381752 455.9163045318572L1225.7660393381752 512.5936704782696L1214.7059217729238 512.5936704782696L1212.5489693846798 495.08564205028875L1211.5622783985682 493.27288419208367L1211.5622783985682 455.9163045318572Q1211.5622783985682 448.48170268301607 1208.1891720041867 445.2692204026526Q1204.7931193078025 442.0567381222891 1195.2015650707172 442.0567381222891L1195.2015650707172 442.0567381222891Q1188.9372246240086 442.0567381222891 1179.437455594934 442.6992345783618Q1169.9376865658592 443.3646773364371 1160.6903268588126 444.1907442085306L1160.6903268588126 444.1907442085306L1159.3594413426622 433.79606940135454Q1164.9812853332983 432.7864321132403 1171.6586592160538 431.96036524114686Q1178.3589794008117 431.1342983690534 1185.2887626055958 430.65242602699885Q1192.2414921123823 430.14760738294177 1198.1845843310548 430.14760738294177ZM1178.0377311727752 463.02965815266197L1219.1575043614275 463.02965815266197L1218.9968802474095 473.6079033758588L1180.5159317890557 473.768527489877Q1174.7334636844016 473.92915160389515 1172.4158871821392 476.82038565622224Q1170.0983106798772 479.71161970854934 1170.0983106798772 484.82864505512833L1170.0983106798772 484.82864505512833L1170.0983106798772 489.96861670370987Q1170.0983106798772 496.2329571504186 1173.0813299402148 499.1241912027457Q1176.0414028985497 502.0154252550728 1182.6499378752974 502.0154252550728L1182.6499378752974 502.0154252550728Q1187.2850908798214 502.0154252550728 1193.1363978904837 500.2944526048781Q1199.0106512031484 498.55053365268077 1204.9537434218205 494.9250179362706Q1210.896835640493 491.2765559178578 1215.853236873054 485.65471192722174L1215.853236873054 485.65471192722174L1215.853236873054 496.0723330364004Q1214.0404790148486 498.3899095386626 1210.6673726204672 501.44176770500786Q1207.271319924083 504.4936258713532 1202.5673280135507 507.38485992368027Q1197.8633361030184 510.2760939760074 1192.1497069043721 512.1806370422229Q1186.4590240077282 514.0851801084384 1179.8504890309805 514.0851801084384L1179.8504890309805 514.0851801084384Q1172.7371354101756 514.0851801084384 1167.2988618355603 511.5151942841476Q1161.8376419589426 508.9681547618594 1158.7857837925972 503.9199683212883Q1155.7339256262521 498.8717818807171 1155.7339256262521 491.62075044789674L1155.7339256262521 491.62075044789674L1155.7339256262521 482.855263082905Q1155.7339256262521 473.4472792618406 1161.585232636914 468.23846870725134Q1167.4594859495787 463.02965815266197 1178.0377311727752 463.02965815266197L1178.0377311727752 463.02965815266197ZM1256.9959563637085 408.34862048047546L1271.0390931892975 408.34862048047546L1271.0390931892975 490.45048904576436Q1271.0390931892975 496.2329571504186 1273.517293805578 498.71115776669893Q1275.995494421858 501.1893583829793 1281.9385866405305 501.1893583829793L1281.9385866405305 501.1893583829793L1294.1689656079143 501.1893583829793L1295.821099352101 511.92822772019434Q1293.1822746218027 512.5936704782696 1289.7173830194106 513.0984891223268Q1286.2524914170185 513.5803614643812 1282.948223928645 513.8327707864098Q1279.6439564402708 514.0851801084384 1277.6476281660453 514.0851801084384L1277.6476281660453 514.0851801084384Q1267.5742015869055 514.0851801084384 1262.2965521263081 508.46333611780227Q1256.9959563637085 502.84149212716625 1256.9959563637085 492.26324690396945L1256.9959563637085 492.26324690396945L1256.9959563637085 408.34862048047546ZM1258.3268418798593 432.1439356571676L1296.6471662241947 432.1439356571676L1296.6471662241947 443.20405322241896L1242.4709471960655 443.20405322241896L1242.4709471960655 432.9700025292611L1258.3268418798593 432.1439356571676ZM1347.863312293989 430.14760738294177L1347.863312293989 430.14760738294177Q1361.7458250055597 430.14760738294177 1370.0982789345048 434.27794174340903Q1378.4277865614472 438.40827610387635 1382.07624857986 447.747421018933Q1385.70176429627 457.0865659339896 1385.70176429627 472.4376419737264L1385.70176429627 472.4376419737264Q1385.70176429627 487.8116643154658 1382.07624857986 497.1508092305224Q1378.4277865614472 506.489954145579 1370.0982789345048 510.62028850604634Q1361.7458250055597 514.7506228665136 1347.863312293989 514.7506228665136L1347.863312293989 514.7506228665136Q1334.1643699984393 514.7506228665136 1325.8119160694941 510.62028850604634Q1317.4594621405495 506.489954145579 1313.7421612161288 497.1508092305224Q1310.0248602917081 487.8116643154658 1310.0248602917081 472.4376419737264L1310.0248602917081 472.4376419737264Q1310.0248602917081 457.0865659339896 1313.7421612161288 447.747421018933Q1317.4594621405495 438.40827610387635 1325.8119160694941 434.27794174340903Q1334.1643699984393 430.14760738294177 1347.863312293989 430.14760738294177ZM1347.863312293989 442.0567381222891L1347.863312293989 442.0567381222891Q1339.1207712310002 442.0567381222891 1334.0725847904291 444.7644017585955Q1329.0243983498576 447.49501169690444 1326.8903922636164 454.1035466736521Q1324.7334398753724 460.7120816503998 1324.7334398753724 472.4376419737264L1324.7334398753724 472.4376419737264Q1324.7334398753724 484.1861485990556 1326.8903922636164 490.7946835758033Q1329.0243983498576 497.403218552551 1334.0725847904291 500.1108821888573Q1339.1207712310002 502.84149212716625 1347.863312293989 502.84149212716625L1347.863312293989 502.84149212716625Q1356.6287996589808 502.84149212716625 1361.7458250055597 500.1108821888573Q1366.8628503521386 497.403218552551 1369.0198027403826 490.7946835758033Q1371.1538088266243 484.1861485990556 1371.1538088266243 472.4376419737264L1371.1538088266243 472.4376419737264Q1371.1538088266243 460.7120816503998 1369.0198027403826 454.1035466736521Q1366.8628503521386 447.49501169690444 1361.7458250055597 444.7644017585955Q1356.6287996589808 442.0567381222891 1347.863312293989 442.0567381222891ZM1407.6843216147572 432.1439356571676L1418.5838150659906 432.1439356571676L1420.3965729241954 447.49501169690444L1421.7274584403463 449.9732123131848L1421.7274584403463 512.5936704782696L1407.6843216147572 512.5936704782696L1407.6843216147572 432.1439356571676ZM1454.4259387940456 430.14760738294177L1458.0744008124584 430.14760738294177L1456.4222670682716 443.3646773364371L1451.7871140637471 443.3646773364371Q1444.6737604429422 443.3646773364371 1437.58335312414 446.2559113887642Q1430.4699995033352 449.14714544109137 1420.2359488101774 454.44774120369107L1420.2359488101774 454.44774120369107L1419.065687408045 445.6822538386993Q1427.9917988870548 438.40827610387635 1437.009695574075 434.27794174340903Q1446.0046459590926 430.14760738294177 1454.4259387940456 430.14760738294177L1454.4259387940456 430.14760738294177ZM1554.058782089318 430.14760738294177L1554.058782089318 430.14760738294177Q1568.9279857870001 430.14760738294177 1576.0183931058023 439.80800052603473Q1583.1317467266072 449.4913399711303 1583.1317467266072 472.11639374569006L1583.1317467266072 472.11639374569006Q1583.1317467266072 482.5340148548687 1581.3878277744097 490.45048904576436Q1579.666855124215 498.3899095386626 1575.6053596697557 503.7593442072701Q1571.5668105172986 509.1287788758776 1564.7058662185227 511.8593888141865Q1557.8449219197464 514.5670524504928 1547.4502471125702 514.5670524504928L1547.4502471125702 514.5670524504928Q1543.319912752103 514.5670524504928 1538.5241356335605 514.2458042224565Q1533.7283585150176 513.9245559944202 1528.7719572824572 513.1673280283345Q1523.8155560498963 512.4330463642514 1519.111564139364 511.3545701701294Q1514.4075722288317 510.2760939760074 1510.4378619823829 508.78458434583865L1510.4378619823829 508.78458434583865L1521.681549963655 499.21597641075607Q1526.1331325521583 500.5239156249041 1530.5158762346541 501.3499824969975Q1534.89861991715 502.176049369091 1539.097793183625 502.42845869111954Q1543.319912752103 502.6808680131481 1547.1060525825314 502.6808680131481L1547.1060525825314 502.6808680131481Q1554.8848489614115 502.5202438991299 1559.5888408719434 499.69784875281056Q1564.2928327824757 496.89839990849384 1566.4497851707197 490.1980797237358Q1568.5837912569614 483.5207058409803 1568.5837912569614 472.11639374569006L1568.5837912569614 472.11639374569006Q1568.5837912569614 461.0562761804387 1566.931657512774 454.51658010969885Q1565.2795237685873 447.9998303409615 1561.0803505021122 445.1774351946422Q1556.8582309336348 442.3779863503255 1549.102380856757 442.3779863503255L1549.102380856757 442.3779863503255Q1542.4938458800093 442.3779863503255 1536.5507536613372 445.9346631607279Q1530.584715140662 449.4913399711303 1522.8288650637846 455.59505630382085L1522.8288650637846 455.59505630382085L1521.842174077673 446.18707248275643Q1526.798575310234 440.88647672015674 1532.007385864823 437.32979990975434Q1537.1932501174097 433.79606940135454 1542.8150941080457 431.96036524114686Q1548.4369380986818 430.14760738294177 1554.058782089318 430.14760738294177ZM1510.4378619823829 396.94430838518514L1524.4809988079714 396.94430838518514L1524.4809988079714 427.0039640085861Q1524.4809988079714 432.1439356571676 1524.2285894859428 436.4348941316531Q1523.9761801639143 440.7258526061386 1522.9894891778026 445.1774351946422L1522.9894891778026 445.1774351946422L1524.3203746939535 447.49501169690444L1524.4809988079714 509.45002710391395L1510.4378619823829 508.78458434583865L1510.4378619823829 396.94430838518514ZM1661.1032809314288 432.1439356571676L1676.3166791591498 432.1439356571676L1644.1000711475049 517.0452530667733Q1642.1037428732793 522.3458488293729 1639.1436699149444 527.4628741759518Q1636.1606506546068 532.5798995225309 1631.9614773881317 536.8020190910086Q1627.7393578196538 541.0011923574837 1622.0486749230104 543.6629633897846Q1616.3350457243637 546.3017881200833 1608.9004438755228 546.6230363481197L1608.9004438755228 546.6230363481197L1607.5925046613747 537.3756766410734Q1617.3217367104753 534.2320332667177 1622.622332473075 528.9543838061206Q1627.8999819336723 523.653788043521 1631.043625308028 516.0585620806617L1631.043625308028 516.0585620806617L1635.0133355544772 506.489954145579Q1636.3212747686248 503.18568665720517 1637.6521602847756 499.21597641075607Q1638.983045800926 495.246266164307 1640.130360901056 492.1026227899513L1640.130360901056 492.1026227899513L1661.1032809314288 432.1439356571676ZM1595.0179311639517 432.1439356571676L1610.0707052776552 432.1439356571676L1631.3648735360644 492.1026227899513Q1632.1909404081575 494.5808234062317 1633.0170072802512 496.9901851165043Q1633.8430741523448 499.37660052477423 1634.3478927964015 501.8548011410546L1634.3478927964015 501.8548011410546L1638.1569789288328 501.8548011410546L1633.5218259243084 512.5936704782696L1629.2308674498227 512.5936704782696Q1627.5787337056358 512.5936704782696 1626.1790092834776 511.60697949215796Q1624.7563385593166 510.62028850604634 1624.2744662172618 508.9681547618594L1624.2744662172618 508.9681547618594L1595.0179311639517 432.1439356571676ZM1756.9270380942698 398.59644212937206L1771.474993563916 398.59644212937206L1771.474993563916 512.5936704782696L1756.9270380942698 512.5936704782696L1756.9270380942698 398.59644212937206ZM1720.2588474941213 398.59644212937206L1808.3267545800854 398.59644212937206L1808.3267545800854 411.4922638548311L1720.2588474941213 411.4922638548311L1720.2588474941213 398.59644212937206ZM1863.1684163662903 430.14760738294177L1863.1684163662903 430.14760738294177Q1872.0945278453 430.14760738294177 1878.2900293860012 432.5569690932143Q1884.4855309267018 434.94338450148433 1887.6291743010574 440.5652284921204Q1890.7498713734108 446.18707248275643 1890.7498713734108 455.9163045318572L1890.7498713734108 455.9163045318572L1890.7498713734108 512.5936704782696L1879.6897538081594 512.5936704782696L1877.5328014199154 495.08564205028875L1876.5461104338037 493.27288419208367L1876.5461104338037 455.9163045318572Q1876.5461104338037 448.48170268301607 1873.1730040394218 445.2692204026526Q1869.776951343038 442.0567381222891 1860.1853971059527 442.0567381222891L1860.1853971059527 442.0567381222891Q1853.9210566592437 442.0567381222891 1844.421287630169 442.6992345783618Q1834.9215186010942 443.3646773364371 1825.674158894048 444.1907442085306L1825.674158894048 444.1907442085306L1824.3432733778973 433.79606940135454Q1829.9651173685334 432.7864321132403 1836.642491251289 431.96036524114686Q1843.3428114360472 431.1342983690534 1850.2725946408314 430.65242602699885Q1857.2253241476178 430.14760738294177 1863.1684163662903 430.14760738294177ZM1843.0215632080108 463.02965815266197L1884.141336396663 463.02965815266197L1883.980712282645 473.6079033758588L1845.4997638242912 473.768527489877Q1839.7172957196367 473.92915160389515 1837.3997192173747 476.82038565622224Q1835.0821427151127 479.71161970854934 1835.0821427151127 484.82864505512833L1835.0821427151127 484.82864505512833L1835.0821427151127 489.96861670370987Q1835.0821427151127 496.2329571504186 1838.0651619754499 499.1241912027457Q1841.0252349337852 502.0154252550728 1847.6337699105325 502.0154252550728L1847.6337699105325 502.0154252550728Q1852.268922915057 502.0154252550728 1858.1202299257188 500.2944526048781Q1863.9944832383835 498.55053365268077 1869.937575457056 494.9250179362706Q1875.8806676757285 491.2765559178578 1880.837068908289 485.65471192722174L1880.837068908289 485.65471192722174L1880.837068908289 496.0723330364004Q1879.0243110500842 498.3899095386626 1875.6512046557023 501.44176770500786Q1872.255151959318 504.4936258713532 1867.5511600487862 507.38485992368027Q1862.847168138254 510.2760939760074 1857.1335389396072 512.1806370422229Q1851.4428560429637 514.0851801084384 1844.8343210662156 514.0851801084384L1844.8343210662156 514.0851801084384Q1837.7209674454111 514.0851801084384 1832.2826938707958 511.5151942841476Q1826.8214739941777 508.9681547618594 1823.7696158278327 503.9199683212883Q1820.7177576614872 498.8717818807171 1820.7177576614872 491.62075044789674L1820.7177576614872 491.62075044789674L1820.7177576614872 482.855263082905Q1820.7177576614872 473.4472792618406 1826.5690646721496 468.23846870725134Q1832.4433179848138 463.02965815266197 1843.0215632080108 463.02965815266197L1843.0215632080108 463.02965815266197ZM1911.080294947711 501.1893583829793L1962.9618837755806 443.5253014504553L1978.6571543453565 443.70887186647604L1926.7755655174865 501.3499824969975L1911.080294947711 501.1893583829793ZM1911.080294947711 501.1893583829793L1979.139026687411 501.1893583829793L1979.139026687411 512.5936704782696L1911.080294947711 512.5936704782696L1911.080294947711 501.1893583829793ZM1911.5851135917678 432.1439356571676L1978.6571543453565 432.1439356571676L1978.6571543453565 443.70887186647604L1911.5851135917678 443.70887186647604L1911.5851135917678 432.1439356571676Z " fill="#f2f2f2" transform="matrix(0.4421114303578433,0,0,0.4421114303578433,0,91.49006772768399)"/></g></svg>